<svg xmlns="http://www.w3.org/2000/svg" width="44" height="44" viewBox="0 0 24 24" stroke-width="1.5" stroke="#000000" fill="none" stroke-linecap="round" stroke-linejoin="round">

  <defs>
    <style><![CDATA[
      .icon { display: none; }
      .icon:target { display: inline; }
    ]]></style>
  </defs>

<g class="icon icon-tabler icon-tabler-currency-euro" id="currency-euro">
  <path stroke="none" d="M0 0h24v24H0z" fill="none"/>
  <path d="M17.2 7a6 7 0 1 0 0 10" />
  <path d="M13 10h-8m0 4h8" />
</g>

<g class="icon icon-tabler icon-tabler-currency-dollar" id="currency-dollar">
  <path stroke="none" d="M0 0h24v24H0z" fill="none"/>
  <path d="M16.7 8a3 3 0 0 0 -2.7 -2h-4a3 3 0 0 0 0 6h4a3 3 0 0 1 0 6h-4a3 3 0 0 1 -2.7 -2" />
  <path d="M12 3v3m0 12v3" />
</g>

<g class="icon icon-tabler icon-tabler-currency-bitcoin" id="currency-bitcoin">
  <path stroke="none" d="M0 0h24v24H0z" fill="none"/>
  <path d="M6 6h8a3 3 0 0 1 0 6a3 3 0 0 1 0 6h-8" />
  <line x1="8" y1="6" x2="8" y2="18" />
  <line x1="8" y1="12" x2="14" y2="12" />
  <line x1="9" y1="3" x2="9" y2="6" />
  <line x1="13" y1="3" x2="13" y2="6" />
  <line x1="9" y1="18" x2="9" y2="21" />
  <line x1="13" y1="18" x2="13" y2="21" />
</g>

<g class="icon icon-tabler icon-tabler-help" id="help">
  <path stroke="none" d="M0 0h24v24H0z" fill="none"/>
  <circle cx="12" cy="12" r="9" />
  <line x1="12" y1="17" x2="12" y2="17.01" />
  <path d="M12 13.5a1.5 1.5 0 0 1 1 -1.5a2.6 2.6 0 1 0 -3 -4" />
</g>

<g class="icon icon-tabler icon-tabler-info-circle" id="info-circle">
  <path stroke="none" d="M0 0h24v24H0z" fill="none"/>
  <circle cx="12" cy="12" r="9" />
  <line x1="12" y1="8" x2="12.01" y2="8" />
  <polyline points="11 12 12 12 12 16 13 16" />
</g>

<g class="icon icon-tabler icon-tabler-home" id="home">
  <path stroke="none" d="M0 0h24v24H0z" fill="none"/>
  <polyline points="5 12 3 12 12 3 21 12 19 12" />
  <path d="M5 12v7a2 2 0 0 0 2 2h10a2 2 0 0 0 2 -2v-7" />
  <path d="M9 21v-6a2 2 0 0 1 2 -2h2a2 2 0 0 1 2 2v6" />
</g>

<g class="icon icon-tabler icon-tabler-inbox" id="inbox">
  <path stroke="none" d="M0 0h24v24H0z" fill="none"/>
  <rect x="4" y="4" width="16" height="16" rx="2" />
  <path d="M4 13h3l3 3h4l3 -3h3" />
</g>

<g class="icon icon-tabler icon-tabler-key" id="key">
  <path stroke="none" d="M0 0h24v24H0z" fill="none"/>
  <circle cx="8" cy="15" r="4" />
  <line x1="10.85" y1="12.15" x2="19" y2="4" />
  <line x1="18" y1="5" x2="20" y2="7" />
  <line x1="15" y1="8" x2="17" y2="10" />
</g>

<g class="icon icon-tabler icon-tabler-user-plus" id="user-plus">
  <path stroke="none" d="M0 0h24v24H0z" fill="none"/>
  <circle cx="9" cy="7" r="4" />
  <path d="M3 21v-2a4 4 0 0 1 4 -4h4a4 4 0 0 1 4 4v2" />
  <path d="M16 11h6m-3 -3v6" />
</g>

<g class="icon icon-tabler icon-tabler-x" id="x">
  <path stroke="none" d="M0 0h24v24H0z" fill="none"/>
  <line x1="18" y1="6" x2="6" y2="18" />
  <line x1="6" y1="6" x2="18" y2="18" />
</g>

<g class="icon icon-tabler icon-tabler-square-x" id="square-x">
  <path stroke="none" d="M0 0h24v24H0z" fill="none"/>
  <rect x="4" y="4" width="16" height="16" rx="2" />
  <path d="M10 10l4 4m0 -4l-4 4" />
</g>

<g class="icon icon-tabler icon-tabler-bolt" id="bolt">
  <path stroke="none" d="M0 0h24v24H0z" fill="none"/>
  <polyline points="13 3 13 10 19 10 11 21 11 14 5 14 13 3" />
</g>

<g class="icon icon-tabler icon-tabler-affiliate" id="affiliate">
  <path stroke="none" d="M0 0h24v24H0z" fill="none"/>
  <path d="M5.931 6.936l1.275 4.249m5.607 5.609l4.251 1.275" />
  <path d="M11.683 12.317l5.759 -5.759" />
  <circle cx="5.5" cy="5.5" r="1.5" />
  <circle cx="18.5" cy="5.5" r="1.5" />
  <circle cx="18.5" cy="18.5" r="1.5" />
  <circle cx="8.5" cy="15.5" r="4.5" />
</g>

<g class="icon icon-tabler icon-tabler-archive" id="archive">
  <path stroke="none" d="M0 0h24v24H0z" fill="none"/>
  <rect x="3" y="4" width="18" height="4" rx="2" />
  <path d="M5 8v10a2 2 0 0 0 2 2h10a2 2 0 0 0 2 -2v-10" />
  <line x1="10" y1="12" x2="14" y2="12" />
</g>

<g class="icon icon-tabler icon-tabler-award" id="award">
  <path stroke="none" d="M0 0h24v24H0z" fill="none"/>
  <circle cx="12" cy="9" r="6" />
  <polyline points="9 14.2 9 21 12 19 15 21 15 14.2" transform="rotate(-30 12 9)" />
  <polyline points="9 14.2 9 21 12 19 15 21 15 14.2" transform="rotate(30 12 9)" />
</g>

<g class="icon icon-tabler icon-tabler-building-bank" id="building-bank">
  <path stroke="none" d="M0 0h24v24H0z" fill="none"/>
  <line x1="3" y1="21" x2="21" y2="21" />
  <line x1="3" y1="10" x2="21" y2="10" />
  <polyline points="5 6 12 3 19 6" />
  <line x1="4" y1="10" x2="4" y2="21" />
  <line x1="20" y1="10" x2="20" y2="21" />
  <line x1="8" y1="14" x2="8" y2="17" />
  <line x1="12" y1="14" x2="12" y2="17" />
  <line x1="16" y1="14" x2="16" y2="17" />
</g>

<g class="icon icon-tabler icon-tabler-certificate" id="certificate">
  <path stroke="none" d="M0 0h24v24H0z" fill="none"/>
  <circle cx="15" cy="15" r="3" />
  <path d="M13 17.5v4.5l2 -1.5l2 1.5v-4.5" />
  <path d="M10 19h-5a2 2 0 0 1 -2 -2v-10c0 -1.1 .9 -2 2 -2h14a2 2 0 0 1 2 2v10a2 2 0 0 1 -1 1.73" />
  <line x1="6" y1="9" x2="18" y2="9" />
  <line x1="6" y1="12" x2="9" y2="12" />
  <line x1="6" y1="15" x2="8" y2="15" />
</g>

<g class="icon icon-tabler icon-tabler-checks" id="checks">
  <path stroke="none" d="M0 0h24v24H0z" fill="none"/>
  <path d="M7 12l5 5l10 -10" />
  <path d="M2 12l5 5m5 -5l5 -5" />
</g>

<g class="icon icon-tabler icon-tabler-check" id="check">
  <path stroke="none" d="M0 0h24v24H0z" fill="none"/>
  <path d="M5 12l5 5l10 -10" />
</g>

<g class="icon icon-tabler icon-tabler-cloud-storm" id="cloud-storm">
  <path stroke="none" d="M0 0h24v24H0z" fill="none"/>
  <path d="M7 18a4.6 4.4 0 0 1 0 -9a5 4.5 0 0 1 11 2h1a3.5 3.5 0 0 1 0 7h-1" />
  <polyline points="13 14 11 18 14 18 12 22" />
</g>

<g class="icon icon-tabler icon-tabler-cloud" id="cloud">
  <path stroke="none" d="M0 0h24v24H0z" fill="none"/>
  <path d="M7 18a4.6 4.4 0 0 1 0 -9a5 4.5 0 0 1 11 2h1a3.5 3.5 0 0 1 0 7h-12" />
</g>

<g class="icon icon-tabler icon-tabler-device-floppy" id="device-floppy">
  <path stroke="none" d="M0 0h24v24H0z" fill="none"/>
  <path d="M6 4h10l4 4v10a2 2 0 0 1 -2 2h-12a2 2 0 0 1 -2 -2v-12a2 2 0 0 1 2 -2" />
  <circle cx="12" cy="14" r="2" />
  <polyline points="14 4 14 8 8 8 8 4" />
</g>

<g class="icon icon-tabler icon-tabler-printer" id="printer">
  <path stroke="none" d="M0 0h24v24H0z" fill="none"/>
  <path d="M17 17h2a2 2 0 0 0 2 -2v-4a2 2 0 0 0 -2 -2h-14a2 2 0 0 0 -2 2v4a2 2 0 0 0 2 2h2" />
  <path d="M17 9v-4a2 2 0 0 0 -2 -2h-6a2 2 0 0 0 -2 2v4" />
  <rect x="7" y="13" width="10" height="8" rx="2" />
</g>

<g class="icon icon-tabler icon-tabler-file-certificate" id="file-certificate">
  <path stroke="none" d="M0 0h24v24H0z" fill="none"/>
  <path d="M14 3v4a1 1 0 0 0 1 1h4" />
  <path d="M5 8v-3a2 2 0 0 1 2 -2h7l5 5v11a2 2 0 0 1 -2 2h-5" />
  <circle cx="6" cy="14" r="3" />
  <path d="M4.5 17l-1.5 5l3 -1.5l3 1.5l-1.5 -5" />
</g>

<g class="icon icon-tabler icon-tabler-file-check" id="file-check">
  <path stroke="none" d="M0 0h24v24H0z" fill="none"/>
  <path d="M14 3v4a1 1 0 0 0 1 1h4" />
  <path d="M17 21h-10a2 2 0 0 1 -2 -2v-14a2 2 0 0 1 2 -2h7l5 5v11a2 2 0 0 1 -2 2z" />
  <path d="M9 15l2 2l4 -4" />
</g>

<g class="icon icon-tabler icon-tabler-file-diff" id="file-diff">
  <path stroke="none" d="M0 0h24v24H0z" fill="none"/>
  <path d="M14 3v4a1 1 0 0 0 1 1h4" />
  <path d="M17 21h-10a2 2 0 0 1 -2 -2v-14a2 2 0 0 1 2 -2h7l5 5v11a2 2 0 0 1 -2 2z" />
  <line x1="12" y1="10" x2="12" y2="14" />
  <line x1="10" y1="12" x2="14" y2="12" />
  <line x1="10" y1="17" x2="14" y2="17" />
</g>

<g class="icon icon-tabler icon-tabler-file-dislike" id="file-dislike">
  <path stroke="none" d="M0 0h24v24H0z" fill="none"/>
  <rect x="3" y="14" width="3" height="5" rx="1" />
  <path d="M6 15a1 1 0 0 1 1 -1h3.756a1 1 0 0 1 .958 .713l1.2 3c.09 .303 .133 .63 -.056 .884c-.188 .254 -.542 .403 -.858 .403h-2v2.467a1.1 1.1 0 0 1 -2.015 .61l-1.985 -3.077v-4z" />
  <path d="M14 3v4a1 1 0 0 0 1 1h4" />
  <path d="M5 11v-6a2 2 0 0 1 2 -2h7l5 5v11a2 2 0 0 1 -2 2h-2.5" />
</g>

<g class="icon icon-tabler icon-tabler-file-like" id="file-like">
  <path stroke="none" d="M0 0h24v24H0z" fill="none"/>
  <rect x="3" y="16" width="3" height="5" rx="1" />
  <path d="M6 20a1 1 0 0 0 1 1h3.756a1 1 0 0 0 .958 -.713l1.2 -3c.09 -.303 .133 -.63 -.056 -.884c-.188 -.254 -.542 -.403 -.858 -.403h-2v-2.467a1.1 1.1 0 0 0 -2.015 -.61l-1.985 3.077v4z" />
  <path d="M14 3v4a1 1 0 0 0 1 1h4" />
  <path d="M5 12.1v-7.1a2 2 0 0 1 2 -2h7l5 5v11a2 2 0 0 1 -2 2h-2.3" />
</g>

<g class="icon icon-tabler icon-tabler-file-text" id="file-text">
  <path stroke="none" d="M0 0h24v24H0z" fill="none"/>
  <path d="M14 3v4a1 1 0 0 0 1 1h4" />
  <path d="M17 21h-10a2 2 0 0 1 -2 -2v-14a2 2 0 0 1 2 -2h7l5 5v11a2 2 0 0 1 -2 2z" />
  <line x1="9" y1="9" x2="10" y2="9" />
  <line x1="9" y1="13" x2="15" y2="13" />
  <line x1="9" y1="17" x2="15" y2="17" />
</g>

<g class="icon icon-tabler icon-tabler-gavel" id="gavel">
  <path stroke="none" d="M0 0h24v24H0z" fill="none"/>
  <path d="M13 10l7.383 7.418c.823 .82 .823 2.148 0 2.967a2.11 2.11 0 0 1 -2.976 0l-7.407 -7.385" />
  <path d="M6 9l4 4" />
  <path d="M13 10l-4 -4" />
  <path d="M3 21h7" />
  <path d="M6.793 15.793l-3.586 -3.586a1 1 0 0 1 0 -1.414l2.293 -2.293l.5 .5l3 -3l-.5 -.5l2.293 -2.293a1 1 0 0 1 1.414 0l3.586 3.586a1 1 0 0 1 0 1.414l-2.293 2.293l-.5 -.5l-3 3l.5 .5l-2.293 2.293a1 1 0 0 1 -1.414 0z" />
</g>

<g class="icon icon-tabler icon-tabler-history" id="history">
  <path stroke="none" d="M0 0h24v24H0z" fill="none"/>
  <polyline points="12 8 12 12 14 14" />
  <path d="M3.05 11a9 9 0 1 1 .5 4m-.5 5v-5h5" />
</g>

<g class="icon icon-tabler icon-tabler-license" id="license">
  <path stroke="none" d="M0 0h24v24H0z" fill="none"/>
  <path d="M15 21h-9a3 3 0 0 1 -3 -3v-1h10v2a2 2 0 0 0 4 0v-14a2 2 0 1 1 2 2h-2m2 -4h-11a3 3 0 0 0 -3 3v11" />
  <line x1="9" y1="7" x2="13" y2="7" />
  <line x1="9" y1="11" x2="13" y2="11" />
</g>

<g class="icon icon-tabler icon-tabler-mail" id="mail">
  <path stroke="none" d="M0 0h24v24H0z" fill="none"/>
  <rect x="3" y="5" width="18" height="14" rx="2" />
  <polyline points="3 7 12 13 21 7" />
</g>

<g class="icon icon-tabler icon-tabler-moon" id="moon">
  <path stroke="none" d="M0 0h24v24H0z" fill="none"/>
  <path d="M12 3c.132 0 .263 0 .393 0a7.5 7.5 0 0 0 7.92 12.446a9 9 0 1 1 -8.313 -12.454z" />
</g>

<g class="icon icon-tabler icon-tabler-scale" id="scale">
  <path stroke="none" d="M0 0h24v24H0z" fill="none"/>
  <line x1="7" y1="20" x2="17" y2="20" />
  <path d="M6 6l6 -1l6 1" />
  <line x1="12" y1="3" x2="12" y2="20" />
  <path d="M9 12l-3 -6l-3 6a3 3 0 0 0 6 0" />
  <path d="M21 12l-3 -6l-3 6a3 3 0 0 0 6 0" />
</g>
<g class="icon icon-tabler icon-tabler-search" id="search">
  <path stroke="none" d="M0 0h24v24H0z" fill="none"/>
  <circle cx="10" cy="10" r="7" />
  <line x1="21" y1="21" x2="15" y2="15" />
</g>

<g class="icon icon-tabler icon-tabler-send" id="send">
  <path stroke="none" d="M0 0h24v24H0z" fill="none"/>
  <line x1="10" y1="14" x2="21" y2="3" />
  <path d="M21 3l-6.5 18a0.55 .55 0 0 1 -1 0l-3.5 -7l-7 -3.5a0.55 .55 0 0 1 0 -1l18 -6.5" />
</g>

<g class="icon icon-tabler icon-tabler-shield-check" id="shield-check">
  <path stroke="none" d="M0 0h24v24H0z" fill="none"/>
  <path d="M9 12l2 2l4 -4" />
  <path d="M12 3a12 12 0 0 0 8.5 3a12 12 0 0 1 -8.5 15a12 12 0 0 1 -8.5 -15a12 12 0 0 0 8.5 -3" />
</g>

<g class="icon icon-tabler icon-tabler-shield-chevron" id="shield-chevron">
  <path stroke="none" d="M0 0h24v24H0z" fill="none"/>
  <path d="M12 3a12 12 0 0 0 8.5 3a12 12 0 0 1 -8.5 15a12 12 0 0 1 -8.5 -15a12 12 0 0 0 8.5 -3" />
  <path d="M4 14l8 -3l8 3" />
</g>

<g class="icon icon-tabler icon-tabler-shield-off" id="shield-off">
  <path stroke="none" d="M0 0h24v24H0z" fill="none"/>
  <line x1="3" y1="3" x2="21" y2="21" />
  <path d="M17.669 17.669a12 12 0 0 1 -5.669 3.331a12 12 0 0 1 -8.5 -15c.797 .036 1.589 0 2.366 -.126m3.092 -.912a12 12 0 0 0 3.042 -1.962a12 12 0 0 0 8.5 3a12 12 0 0 1 -1.117 9.379" />
</g>

<g class="icon icon-tabler icon-tabler-shield" id="shield">
  <path stroke="none" d="M0 0h24v24H0z" fill="none"/>
  <path d="M12 3a12 12 0 0 0 8.5 3a12 12 0 0 1 -8.5 15a12 12 0 0 1 -8.5 -15a12 12 0 0 0 8.5 -3" />
</g>

<g class="icon icon-tabler icon-tabler-sun" id="sun">
  <path stroke="none" d="M0 0h24v24H0z" fill="none"/>
  <circle cx="12" cy="12" r="4" />
  <path d="M3 12h1m8 -9v1m8 8h1m-9 8v1m-6.4 -15.4l.7 .7m12.1 -.7l-.7 .7m0 11.4l.7 .7m-12.1 -.7l-.7 .7" />
</g>

<g class="icon icon-tabler icon-tabler-trash" id="trash">
  <path stroke="none" d="M0 0h24v24H0z" fill="none"/>
  <line x1="4" y1="7" x2="20" y2="7" />
  <line x1="10" y1="11" x2="10" y2="17" />
  <line x1="14" y1="11" x2="14" y2="17" />
  <path d="M5 7l1 12a2 2 0 0 0 2 2h8a2 2 0 0 0 2 -2l1 -12" />
  <path d="M9 7v-3a1 1 0 0 1 1 -1h4a1 1 0 0 1 1 1v3" />
</g>

<g class="icon icon-tabler icon-tabler-user-check" id="user-check">
  <path stroke="none" d="M0 0h24v24H0z" fill="none"/>
  <circle cx="9" cy="7" r="4" />
  <path d="M3 21v-2a4 4 0 0 1 4 -4h4a4 4 0 0 1 4 4v2" />
  <path d="M16 11l2 2l4 -4" />
</g>

<g class="icon icon-tabler icon-tabler-users" id="users">
  <path stroke="none" d="M0 0h24v24H0z" fill="none"/>
  <circle cx="9" cy="7" r="4" />
  <path d="M3 21v-2a4 4 0 0 1 4 -4h4a4 4 0 0 1 4 4v2" />
  <path d="M16 3.13a4 4 0 0 1 0 7.75" />
  <path d="M21 21v-2a4 4 0 0 0 -3 -3.85" />
</g>

<g class="icon icon-tabler icon-tabler-user" id="user">
  <path stroke="none" d="M0 0h24v24H0z" fill="none"/>
  <circle cx="12" cy="7" r="4" />
  <path d="M6 21v-2a4 4 0 0 1 4 -4h4a4 4 0 0 1 4 4v2" />
</g>

<g class="icon icon-tabler icon-tabler-wallet" id="wallet">
  <path stroke="none" d="M0 0h24v24H0z" fill="none"/>
  <path d="M17 8v-3a1 1 0 0 0 -1 -1h-10a2 2 0 0 0 0 4h12a1 1 0 0 1 1 1v3m0 4v3a1 1 0 0 1 -1 1h-12a2 2 0 0 1 -2 -2v-12" />
  <path d="M20 12v4h-4a2 2 0 0 1 0 -4h4" />
</g>

<g class="icon icon-tabler icon-tabler-writing-sign" id="writing-sign">
  <path stroke="none" d="M0 0h24v24H0z" fill="none"/>
  <path d="M3 19c3.333 -2 5 -4 5 -6c0 -3 -1 -3 -2 -3s-2.032 1.085 -2 3c.034 2.048 1.658 2.877 2.5 4c1.5 2 2.5 2.5 3.5 1c.667 -1 1.167 -1.833 1.5 -2.5c1 2.333 2.333 3.5 4 3.5h2.5" />
  <path d="M20 17v-12c0 -1.121 -.879 -2 -2 -2s-2 .879 -2 2v12l2 2l2 -2z" />
  <path d="M16 7h4" />
</g>

</svg>
